inDegrees=yes
name=ik_MT_012005D6_009-001_orientations
DataType=double
version=3
OpenSimVersion=4.1
endheader
time	pelvis_tilt	pelvis_list	pelvis_rotation	pelvis_tx	pelvis_ty	pelvis_tz	hip_flexion_r	hip_adduction_r	hip_rotation_r	knee_angle_r	knee_angle_r_beta	ankle_angle_r	subtalar_angle_r	mtp_angle_r	hip_flexion_l	hip_adduction_l	hip_rotation_l	knee_angle_l	knee_angle_l_beta	ankle_angle_l	subtalar_angle_l	mtp_angle_l	lumbar_extension	lumbar_bending	lumbar_rotation	arm_flex_r	arm_add_r	arm_rot_r	elbow_flex_r	pro_sup_r	wrist_flex_r	wrist_dev_r	arm_flex_l	arm_add_l	arm_rot_l	elbow_flex_l	pro_sup_l	wrist_flex_l	wrist_dev_l
12.15999999999979	-1.474924482615292	-1.500115433569609	91.52998900933545	0	0.9399999999999999	0	-3.452566909978803	1.594585338962041	-0.5857864263532897	11.4509450417109	0.1998566934427747	7.932025334806379	0	0	25.96812976959308	-2.067550652107323	0.6997533927122229	0.2863991150448187	0.004998607532330114	4.480400550394433	0	0	0	0	0	0	-14.99999770002564	0	75.00017584614135	45.00000025534056	0	0	0	-14.99999770002564	0	75.00017584614135	45.00000025534056	0	0
12.16999999999978	-1.336690557642552	-1.471711495908011	91.07943517540956	0	0.9399999999999999	0	-3.846336879562498	1.542298356121808	-0.3456977736407282	11.86557457656047	0.2070933440019123	8.161088818277157	0	0	26.43167987962469	-2.303419085274914	1.104540909366267	0.1232485432277507	0.00215109287761081	6.366435882444181	0	0	0	0	0	0	-14.99999770103387	0	75.00017584614135	45.00000025534056	0	0	0	-14.99999770103387	0	75.00017584614135	45.00000025534056	0	0
12.17999999999978	-1.229499273330064	-1.481615211913945	90.62800686192568	0	0.9399999999999999	0	-4.133252184464013	1.416018634595845	-0.1392784916697731	12.39401950669377	0.2163164479482096	8.435414576016051	0	0	26.77107933688889	-2.339394903509999	1.513445911816628	0.0935784008184129	0.001633251203032261	8.141597497805083	0	0	0	0	0	0	-14.99999770224646	0	75.00017584614135	45.00000025534056	0	0	0	-14.99999770224646	0	75.00017584614135	45.00000025534056	0	0
12.18999999999978	-1.14513203061049	-1.499434281495952	90.19294254098857	0	0.9399999999999999	0	-4.37066101608939	1.275592210278814	0.05318763372872407	13.02336202189139	0.2273005469611906	8.717172921415006	0	0	26.87243173313304	-2.11001851150976	1.696751780630243	0.08800731628006069	0.001536017434931067	9.421171442831776	0	0	0	0	0	0	-14.99999770352767	0	75.00017584614135	45.00000025534056	0	0	0	-14.99999770352767	0	75.00017584614135	45.00000025534056	0	0
12.19999999999978	-1.086079284272129	-1.520221285760376	89.76175291931089	0	0.9399999999999999	0	-4.558916604026871	1.072116385842411	0.2285531943802706	13.74130714667896	0.2398310532373752	8.971730388022811	0	0	26.86449201378892	-1.766364995016708	1.550823588787151	0.08797560118971527	0.001535463902181972	9.865119772309988	0	0	0	0	0	0	-14.99999770466949	0	75.00017584614135	45.00000025534056	0	0	0	-14.99999770466949	0	75.00017584614135	45.00000025534056	0	0
12.20999999999978	-1.042897597426621	-1.558961359065242	89.348723226998	0	0.9399999999999999	0	-4.639553948549262	0.8487406370290382	0.3759018346673023	14.62277254356304	0.255215526655401	9.250438568539883	0	0	26.79327924633485	-1.450406517666289	1.385398786546961	0.09620708813855609	0.001679130451774186	9.700296338527721	0	0	0	0	0	0	-14.99999770603543	0	75.00017584614135	45.00000025534056	0	0	0	-14.99999770603543	0	75.00017584614135	45.00000025534056	0	0
12.21999999999978	-1.04521969730771	-1.58556125924983	88.90476557006056	0	0.9399999999999999	0	-4.838663180019572	0.5743866786616083	0.5318100556410758	15.33535288618121	0.2676523998190773	9.324407944828813	0	0	26.51271741055511	-1.292880675179409	1.36206119477252	0.1309047685273817	0.00228471921736386	9.503815004386841	0	0	0	0	0	0	-14.99999770677132	0	75.00017584614135	45.00000025534056	0	0	0	-14.99999770677132	0	75.00017584614135	45.00000025534056	0	0
12.22999999999978	-1.037697829479881	-1.626762580217031	88.47798115535016	0	0.9399999999999999	0	-4.906801331485701	0.3015236952616192	0.6299676584208329	16.31235636703867	0.2847043273634854	9.525070706199875	0	0	26.08660529594212	-1.469841388428335	1.540218802833292	0.3033360435104895	0.00529421269923082	8.198719288855376	0	0	0	0	0	0	-14.99999770745003	0	75.00017584614135	45.00000025534056	0	0	0	-14.99999770745003	0	75.00017584614135	45.00000025534056	0	0
12.23999999999978	-1.044720223981854	-1.6354559352621	88.05586970818733	0	0.9399999999999999	0	-4.981282274876904	-0.007651587991166829	0.6920603814204126	17.32653179424893	0.3024050277611245	9.598635048049607	0	0	26.02345506261552	-1.529981385934436	1.664987886204753	1.600088082203003	0.02792680535636409	8.193554117163774	0	0	0	0	0	0	-14.99999771002927	0	75.00017584614135	45.00000025534056	0	0	0	-14.99999771002927	0	75.00017584614135	45.00000025534056	0	0
12.24999999999978	-1.050100189423449	-1.583619792150641	87.6352330616017	0	0.9399999999999999	0	-5.196564365788817	-0.3140614216856566	0.7632895871162805	18.24556475165664	0.3184451788022299	9.511304826800442	0	0	26.20130064978148	-1.351067320454429	1.605898694324681	3.307440737943144	0.05772573069169881	7.910559145624268	0	0	0	0	0	0	-14.99999772253611	0	75.00017584614136	45.00000025534056	0	0	0	-14.99999772253611	0	75.00017584614136	45.00000025534056	0	0
